<svg fill="#E1001A" xmlns="http://www.w3.org/2000/svg" xmlns:xlink="http://www.w3.org/1999/xlink" version="1.1" x="0px" y="0px" viewBox="0 0 100 100" enable-background="new 0 0 100 100" xml:space="preserve"><g><path d="M64.799,94.387H41.613c-0.103,0-0.205-0.011-0.307-0.032c-0.731-0.152-3.161-0.788-3.727-2.556   c-0.167-0.522-0.023-6.878-0.36-7.514c-4.899-7.561-8.714-18.201-8.877-20.031c-0.042-0.473-0.996-11.606,1.874-13.51   c0.671-0.445,2.262-1.487,3.144-2.065c-1.007-8.754-2.424-20.877-3.522-30.218c-0.553-4.995,2.282-6.31,4.021-6.65   c1.404-0.276,2.706-0.041,3.756,0.679c1.227,0.84,2.055,2.294,2.396,4.206l3.185,16.353c0.347-10.157,0.769-22.533,0.779-22.901   c0.082-2.881,1.85-4.535,4.852-4.535c3.076,0,4.734,1.822,4.929,5.415l1.047,21.111c1.252-8.422,2.582-17.342,2.681-17.885   c0.592-3.253,2.706-5.047,5.409-4.555c4.412,0.795,4.222,4.64,4.141,6.282c0,0-1.783,21.718-2.53,30.615   c5.22-0.638,6.923,1.467,7.167,4.131c0.259,2.824,0.641,23.474-2.264,32.515c-0.126,0.464-0.252,7.013-0.353,7.966   c-0.22,2.068-2.351,3.001-4.107,3.172C64.895,94.385,64.848,94.387,64.799,94.387z M66.078,91.168   c0.077-0.794,0.235-8.113,0.471-8.843c2.721-8.474,2.372-28.693,2.131-31.324c-0.063-0.685-0.133-1.46-2.42-1.608   c-0.618-0.042-1.54,0.172-1.946,0.552c-0.063,0.059-0.092,0.102-0.104,0.136c-0.007,0.073-0.012,0.139-0.017,0.197   c-0.068,0.801-0.756,1.401-1.558,1.373c-0.804-0.034-1.438-0.694-1.438-1.499c0-0.164,0.012-0.326,0.035-0.484   c0.791-9.411,2.749-32.773,2.791-33.596l0.011-0.239c0.108-2.176-0.109-2.899-1.677-3.182c-0.979-0.173-1.633,0.541-1.925,2.141   c-0.147,0.813-3.583,23.962-4.895,32.813c-0.113,0.763-0.758,1.326-1.557,1.278c-0.771-0.038-1.387-0.653-1.425-1.424   l-1.799-36.276c-0.119-2.198-0.692-2.57-1.933-2.57c-1.537,0-1.822,0.523-1.854,1.621c-0.019,0.632-1.179,34.653-1.229,36.102   c-0.026,0.762-0.62,1.384-1.381,1.444c-0.772,0.067-1.444-0.46-1.591-1.208L37.06,17.246c-0.197-1.108-0.84-2.684-2.626-2.49   c-0.738,0.08-1.946,0.381-1.616,3.366c0.484,4.119,4.746,40.378,4.809,41.801c0.036,0.828-0.605,1.528-1.434,1.564   c-0.862,0.036-1.527-0.605-1.563-1.432c-0.022-0.396-0.366-3.492-0.887-8.039c-0.676,0.443-1.374,0.902-1.793,1.179   c-0.723,1.057-0.964,6.918-0.619,10.794c0.125,1.083,3.546,11.164,8.415,18.679c0.775,1.197,0.68,8.097,0.7,8.467L66.078,91.168z"></path><path d="M62.534,54.131c-0.034,0-0.068-0.001-0.103-0.003c-0.827-0.056-1.452-0.771-1.396-1.598l0.175-2.588   c0.056-0.827,0.757-1.458,1.599-1.396c0.826,0.056,1.451,0.771,1.396,1.598l-0.175,2.588   C63.976,53.524,63.316,54.131,62.534,54.131z"></path></g></svg>