<svg fill="#E1001A" xmlns="http://www.w3.org/2000/svg" xmlns:xlink="http://www.w3.org/1999/xlink" version="1.1" x="0px" y="0px" viewBox="0 0 100 100" enable-background="new 0 0 100 100" xml:space="preserve"><g><path d="M64.921,93.818c-0.187,0-22.883-0.017-22.883-0.017c-0.813,0.028-3.658-0.04-4.277-2.115   c-0.156-0.523-0.141-1.225-0.091-2.762c0.04-1.243,0.134-4.155-0.235-4.804c-4.981-7.193-8.597-18.938-8.757-20.872   c-0.223-2.685-0.548-9.056-0.609-11.232c-0.119-4.177,2.87-8.643,7.183-10.554c0.169-9.453,0.35-20.755,0.467-28.434   c0.371-5.965,3.355-6.846,5.102-6.846c2.247,0,4.74,1.628,5.248,5.265c0.007,0.055,0.012,0.111,0.014,0.167l0.693,26.27   c0.749-0.33,1.598-0.512,2.502-0.512c2.081,0,3.949,0.941,4.983,2.318c0.924-0.58,2.097-0.912,3.417-0.912   c3.236,0,5.869,2.113,5.869,4.711v0.694c0.755-0.31,1.614-0.484,2.532-0.484c3.01,0,5.287,2.039,5.536,4.958   c0.204,2.386,0.402,24.292-2.501,34.47c-0.126,0.463-0.261,6.911-0.36,7.913c-0.077,0.774-0.431,1.441-1.024,1.927   C66.836,93.696,65.629,93.818,64.921,93.818z M64.696,90.81c0.365,0.031,0.874-0.031,1.077-0.13c0.083-0.895,0.234-7.6,0.455-8.375   c2.799-9.811,2.595-31.071,2.396-33.391c-0.119-1.386-1.071-2.213-2.547-2.213c-1.325,0-2.532,0.723-2.532,1.516   c0,0.829-0.671,1.5-1.5,1.5s-1.5-0.671-1.5-1.5v-4.726c0-0.775-1.28-1.711-2.869-1.711c-1.511,0-2.566,0.704-2.566,1.711   c0,0.829-0.671,1.5-1.5,1.5s-1.5-0.671-1.5-1.5v-1.367c0-0.792-1.264-1.75-2.834-1.75c-1.247,0-2.249,0.625-2.437,1.521   c-0.156,0.745-0.851,1.25-1.603,1.187c-0.758-0.068-1.345-0.694-1.365-1.455l-0.788-29.842c-0.063-1.993-1.11-2.603-2.265-2.601   c-1.725,0.003-1.944,1.378-2.105,3.962c-0.106,1.703-0.662,43.478-0.863,45.83c-0.071,0.825-0.785,1.433-1.622,1.367   c-0.826-0.07-1.438-0.797-1.367-1.622c0.064-0.754,0.185-6.259,0.32-13.506c-0.777,0.57-4.432,2.191-4.115,6.718   c0.146,2.09,0.384,8.477,0.6,11.069c0.123,1.356,3.47,12.532,8.243,19.424c0.862,1.246,0.858,3.52,0.759,6.597   c-0.018,0.56-0.04,1.226-0.031,1.615c0.31,0.103,0.907,0.182,1.354,0.166C41.991,90.802,64.646,90.804,64.696,90.81z"></path><path d="M45.375,44.827c-0.829,0-1.5-0.671-1.5-1.5V41.57c0-0.829,0.671-1.5,1.5-1.5s1.5,0.671,1.5,1.5v1.757   C46.875,44.156,46.204,44.827,45.375,44.827z"></path><path d="M53.61,47.58c-0.829,0-1.5-0.671-1.5-1.5v-2.46c0-0.829,0.671-1.5,1.5-1.5s1.5,0.671,1.5,1.5v2.46   C55.11,46.908,54.438,47.58,53.61,47.58z"></path><path d="M62.045,52.167c-0.829,0-1.5-0.671-1.5-1.5v-2.46c0-0.829,0.671-1.5,1.5-1.5s1.5,0.671,1.5,1.5v2.46   C63.545,51.496,62.874,52.167,62.045,52.167z"></path></g></svg>