<svg fill="#E1001A" xmlns="http://www.w3.org/2000/svg" xmlns:xlink="http://www.w3.org/1999/xlink" version="1.1" x="0px" y="0px" viewBox="0 0 100 100" enable-background="new 0 0 100 100" xml:space="preserve"><g><path d="M65.04,94.172c-0.135,0-0.269-0.004-0.401-0.013l-23.462,0.003c-0.574-0.003-3.432-0.121-4.077-2.165   c-0.167-0.531-0.037-6.899-0.382-7.534c-4.863-7.962-8.828-18.438-9.001-20.417c-0.244-2.789-0.261-6.378-0.04-8.534   c0.352-3.44,3.808-6.38,5.339-7.525c-1.024-9.406-2.572-22.657-3.78-32.719c-0.558-5.111,2.306-6.456,4.062-6.804   c1.781-0.354,4.957-0.187,6.206,4.899l4.292,22.41c0.558-5.028,2.765-25.28,2.807-25.521c0.502-2.851,2.348-4.421,5.198-4.421   c3.21,0,4.672,2.917,4.672,5.626l-1.008,29.091c0.654-0.229,1.385-0.354,2.172-0.354c3.011,0,6.261,1.714,6.261,4.482v0.85   c0.721-0.264,1.541-0.411,2.421-0.411c3.136,0,5.415,1.906,5.671,4.744c0.216,2.397,0.444,24.121-2.595,33.715   c-0.131,0.462-0.261,6.81-0.363,7.786C68.829,93.327,66.892,94.172,65.04,94.172z M66.058,90.975   c0.083-0.858,0.231-7.524,0.479-8.306c2.857-9.021,2.668-30.306,2.466-32.539c-0.164-1.817-1.931-2.014-2.683-2.014   c-1.146,0-2.421,0.488-2.421,1.189c0,0.829-0.671,1.5-1.5,1.5s-1.5-0.671-1.5-1.5v-4.628c0-0.585-1.461-1.482-3.261-1.482   c-1.31,0-2.24,0.584-2.313,1.435l-0.006,0.162c-0.028,0.818-0.718,1.479-1.525,1.448c-0.818-0.014-1.474-0.682-1.474-1.5   c0-0.098,0.003-0.194,0.009-0.29l1.146-33.044c-0.001-0.056-0.02-2.574-1.673-2.574c-1.386,0-1.994,0.526-2.244,1.941   c-0.048,0.333-3.767,34.347-3.943,35.147c-0.153,0.695-0.819,1.165-1.486,1.177c-0.712-0.01-1.318-0.519-1.452-1.218l-6.102-31.875   c-0.736-2.985-1.913-2.751-2.693-2.597c-0.701,0.139-2.005,0.397-1.665,3.52c0.85,7.082,5.09,42.604,4.881,44.923   c-0.074,0.826-0.805,1.431-1.629,1.359c-0.822-0.074-1.246-0.804-1.36-1.62C34,58.813,33.861,55.956,33.4,51.576   c-1.267,1.179-2.588,2.765-2.739,4.243c-0.201,1.96-0.182,5.385,0.044,7.967c0.143,1.282,3.652,11.059,8.576,19.12   c0.744,1.219,0.665,7.646,0.682,8.046C40.247,91.069,65.845,91.097,66.058,90.975z"></path><path d="M53.687,49.146c-0.022,0-0.044,0-0.066-0.001c-0.828-0.036-1.469-0.736-1.433-1.564l0.168-3.85   c0.036-0.827,0.738-1.458,1.564-1.433c0.828,0.036,1.469,0.736,1.433,1.564l-0.168,3.85C55.149,48.517,54.485,49.146,53.687,49.146   z"></path><path d="M62.399,53.564c-0.829,0-1.5-0.671-1.5-1.5v-2.46c0-0.829,0.671-1.5,1.5-1.5s1.5,0.671,1.5,1.5v2.46   C63.899,52.893,63.228,53.564,62.399,53.564z"></path></g></svg>