<svg fill="#E1001A" xmlns="http://www.w3.org/2000/svg" xmlns:xlink="http://www.w3.org/1999/xlink" version="1.1" x="0px" y="0px" viewBox="0 0 100 100" style="enable-background:new 0 0 100 100;" xml:space="preserve"><path d="M42.9,35.6c0-3.9,3.2-7.1,7.1-7.1s7.1,3.2,7.1,7.1s-3.2,7.1-7.1,7.1S42.9,39.5,42.9,35.6z M31,38c3.9,0,7.1-3.2,7.1-7.1  s-3.2-7.1-7.1-7.1s-7.1,3.2-7.1,7.1S27.1,38,31,38z M41.2,43.4c-0.9-1.3-2.4-2.2-4-2.2H24.9c-2.7,0-4.9,2.2-4.9,4.9v13.4  c0,0.8,0.7,1.5,1.5,1.5h2.7v9.1c0,0.8,0.7,1.5,1.5,1.5h10.6c0.8,0,1.5-0.7,1.5-1.5v-2.3c-1.1-0.8-1.8-2.1-1.8-3.6V50.7  C36,47.3,38.2,44.5,41.2,43.4z M69,38c3.9,0,7.1-3.2,7.1-7.1s-3.2-7.1-7.1-7.1s-7.1,3.2-7.1,7.1S65.1,38,69,38z M75.1,41.2H62.9  c-1.7,0-3.2,0.9-4,2.2c3,1.1,5.2,4,5.2,7.4v13.4c0,1.5-0.7,2.8-1.8,3.6v2.3c0,0.8,0.7,1.5,1.5,1.5h10.6c0.8,0,1.5-0.7,1.5-1.5v-9.1  h2.7c0.8,0,1.5-0.7,1.5-1.5V46C80,43.4,77.8,41.2,75.1,41.2z M56.1,45.9H43.9c-2.7,0-4.9,2.2-4.9,4.9v13.4c0,0.8,0.7,1.5,1.5,1.5  h2.7v9.1c0,0.8,0.7,1.5,1.5,1.5h10.6c0.8,0,1.5-0.7,1.5-1.5v-9.1h2.7c0.8,0,1.5-0.7,1.5-1.5V50.7C61,48.1,58.8,45.9,56.1,45.9z"></path></svg>